<svg width="246" height="280" viewBox="0 0 246 280" fill="none" xmlns="http://www.w3.org/2000/svg">
<path d="M29.56 253.73C30.58 270.06 41.4 280 58 280H186.85C205.7 280 215.67 270.31 216.8 251.57C219.8 201.04 227.28 77.84 227.8 67.79H18.51C18.51 70 25.84 194.58 29.56 253.73ZM227.62 18C212.83 17.91 198.03 17.78 183.25 18.08C182.848 13.1547 180.608 8.56082 176.975 5.21115C173.342 1.86148 168.582 0.00121831 163.64 8.5969e-08H82.36C77.431 -0.000460357 72.6813 1.84866 69.0502 5.18171C65.419 8.51475 63.1707 13.089 62.75 18C47.53 17.73 32.3 17.82 17.07 18C9.13998 18.07 3.35998 22.54 1.43998 29.51C-1.91002 41.69 5.43998 51.79 18.1 51.83C53.1 51.94 88.1 51.83 123.1 51.83H227.45C238.75 51.83 245.29 45.5 245.32 34.96C245.35 24.42 238.87 18 227.62 18Z" fill="white"/>
</svg>
